<?xml version="1.0" standalone="no"?><!DOCTYPE svg PUBLIC "-//W3C//DTD SVG 1.1//EN" "http://www.w3.org/Graphics/SVG/1.1/DTD/svg11.dtd"><svg t="1577894488993" class="icon" viewBox="0 0 1024 1024" version="1.1" xmlns="http://www.w3.org/2000/svg" p-id="2093" xmlns:xlink="http://www.w3.org/1999/xlink" width="200" height="200"><defs><style type="text/css"></style></defs><path d="M512.285811 0a511.992483 511.992483 0 1 0 511.714074 511.714075A512.549299 512.549299 0 0 0 512.285811 0z m0 940.18413A428.470055 428.470055 0 1 1 803.500676 198.226562h1.39204a33.687379 33.687379 0 0 1 47.329376 2.227265l2.227265 2.227265a33.687379 33.687379 0 0 1-2.227265 47.329375l-1.39204 0.556817a427.913239 427.913239 0 0 1-338.544241 689.616846z" p-id="2094"></path><path d="M572.700367 514.776564a57.352067 57.352067 0 1 1-57.352067-57.352067 57.630475 57.630475 0 0 1 57.352067 57.352067z" p-id="2095"></path><path d="M822.710834 511.714075A310.98184 310.98184 0 1 1 716.358943 278.408093l-144.772209 132.243844a118.880256 118.880256 0 1 0 62.363413 104.403035 114.147318 114.147318 0 0 0-13.363588-54.01117l143.101759-130.851804a309.868207 309.868207 0 0 1 59.022516 181.522077z" p-id="2096"></path></svg>